Patient4_TMGait_0pt8_01_left_04_GRF.mot
version=1
nRows=46
nColumns=19
inDegrees=no
endheader
time	F1x	F1y	F1z	M1x	M1y	M1z	F2x	F2y	F2z	M2x	M2y	M2z	EC1x	EC1y	EC1z	EC2x	EC2y	EC2z
3.58	-7.5278	-7.297	-0.027509	1.2869	-0.22159	-11.266	-17.5484	708.5437	-70.8003	271.2581	74.9949	735.4042	-0.0592	0.0182	-0.0073	-0.0462	0.0165	0.9585
3.5915	-5.2136	-3.8666	0.01655	0.49399	-0.24384	-6.5054	-17.3906	710.2486	-66.848	271.2851	72.296	733.2735	-0.0592	0.0182	-0.0073	-0.0462	0.0165	0.9585
3.603	-3.2458	-0.96575	0.065006	-0.18502	-0.2687	-2.4193	-16.4257	713.6911	-63.5554	272.0415	69.6594	732.0985	-0.0592	0.0182	-0.0073	-0.0462	0.0165	0.9585
3.6145	-1.7387	1.2708	0.097571	-0.71482	-0.28321	0.76956	-14.6812	718.921	-61.1432	273.5685	67.2376	732.1086	-0.0592	0.0182	-0.0073	-0.0462	0.0165	0.9585
3.626	-0.69044	2.8637	0.11834	-1.0997	-0.2925	3.0553	-12.302	725.6634	-59.6661	275.7438	65.151	733.2318	-0.0592	0.0182	-0.0073	-0.0462	0.0165	0.9585
3.6375	-0.051635	3.9004	0.12833	-1.3594	-0.30389	4.547	-9.4922	733.4666	-59.003	278.3548	63.4105	735.2142	-0.0592	0.0182	-0.0073	-0.0462	0.0165	0.9585
3.649	0.27319	4.4979	0.14173	-1.5185	-0.33015	5.4007	-6.4332	741.6971	-59.0045	281.1207	62.008	737.5752	-0.0592	0.0182	-0.0073	-0.0462	0.0165	0.9585
3.6605	0.36	4.743	0.16126	-1.5922	-0.37943	5.7505	-3.2799	749.672	-59.4415	283.7476	60.8467	739.7642	-0.0592	0.0182	-0.0073	-0.0462	0.0165	0.9585
3.672	0.27685	4.6809	0.19684	-1.5798	-0.46247	5.6763	-0.13161	756.7011	-60.14	285.9489	59.8509	741.1875	-0.0592	0.0182	-0.0073	-0.0462	0.0165	0.9585
3.6835	0.085842	4.3307	0.24956	-1.4711	-0.58361	5.2305	2.9489	762.1397	-60.9258	287.4691	58.9162	741.2625	-0.0592	0.0182	-0.0073	-0.0462	0.0165	0.9585
3.695	-0.17404	3.6599	0.32517	-1.2411	-0.74638	4.3847	5.9685	765.4911	-61.6646	288.1158	57.9363	739.5159	-0.0592	0.0182	-0.0073	-0.0462	0.0165	0.9585
3.7065	-0.45781	2.616	0.41621	-0.85953	-0.93615	3.087	8.9258	766.4698	-62.2562	287.7819	56.8228	735.685	-0.0592	0.0182	-0.0073	-0.0462	0.0165	0.9585
3.718	-0.71179	1.1242	0.51824	-0.29457	-1.1281	1.2543	11.8203	765.0412	-62.6273	286.4603	55.5054	729.732	-0.0592	0.0182	-0.0073	-0.0462	0.0165	0.9585
3.7295	-0.87507	-0.84489	0.60861	0.4679	-1.2715	-1.1491	14.6197	761.4816	-62.7781	284.2555	53.9938	721.9298	-0.0592	0.0182	-0.0073	-0.0462	0.0165	0.9585
3.741	-0.83364	-3.2542	0.66295	1.4105	-1.289	-4.0689	17.2431	756.2169	-62.7487	281.3327	52.3551	712.6851	-0.0592	0.0182	-0.0073	-0.0462	0.0165	0.9585
3.7525	-0.4376	-5.9023	0.63616	2.4505	-1.0693	-7.2524	19.5641	749.7229	-62.6665	277.8729	50.7643	702.4708	-0.0592	0.0182	-0.0073	-0.0462	0.0165	0.9585
3.764	0.4891	-8.3525	0.4849	3.4085	-0.48973	-10.1783	21.4666	742.4057	-62.6786	274.0423	49.416	691.6867	-0.0592	0.0182	-0.0073	-0.0462	0.0165	0.9585
3.7755	2.1563	-9.8123	0.13167	3.9666	0.61922	-11.906	22.8807	734.6962	-62.9077	270.0234	48.4622	680.7439	-0.0592	0.0182	-0.0073	-0.0462	0.0165	0.9585
3.787	4.7324	-9.0737	-0.48625	3.642	2.4023	-11.0072	23.8626	727.0464	-63.4227	266.0129	47.9651	670.047	-0.0592	0.0182	-0.0073	-0.0462	0.0165	0.9585
3.7985	8.3044	-4.4544	-1.4437	1.7628	4.9784	-5.4893	24.5543	719.7896	-64.2215	262.1743	47.8838	659.8697	-0.0592	0.0182	-0.0073	-0.0462	0.0165	0.9585
3.81	12.7908	6.1609	-2.7657	-2.5126	8.3372	7.1713	25.2129	713.0076	-65.2464	258.5832	48.0852	650.2339	-0.0592	0.0182	-0.0073	-0.0462	0.0165	0.9585
3.8215	17.7754	25.1276	-4.4236	-10.12	12.2699	29.791	26.135	706.3918	-66.3469	255.1761	48.3341	640.8096	-0.0592	0.0182	-0.0073	-0.0462	0.0165	0.9585
3.833	22.3793	54.667	-6.2649	-21.9319	16.2297	65.0278	27.5974	699.2047	-67.3162	251.7298	48.3501	630.8968	-0.0592	0.0182	-0.0073	-0.0462	0.0165	0.9585
3.8445	25.0756	96.1516	-7.9733	-38.4758	19.2165	114.5356	29.7797	690.259	-67.8899	247.848	47.8296	619.4191	-0.0592	0.0182	-0.0073	-0.0462	0.0165	0.9585
3.856	23.6896	149.3041	-9.0161	-59.6127	19.7537	178.0294	32.7168	677.9885	-67.7826	242.9834	46.5059	605.0114	-0.0592	0.0182	-0.0073	-0.0462	0.0165	0.9585
3.8675	16.6567	212.2796	-8.7368	-84.5702	16.483	253.3951	36.2246	660.6369	-66.7139	236.5052	44.2031	586.2049	-0.0592	0.0182	-0.0073	-0.0462	0.0165	0.9585
3.879	4.5398	282.4146	-6.5289	-112.197	8.8931	337.4383	39.9337	636.5095	-64.4456	227.7899	40.8541	561.6275	-0.0592	0.0182	-0.0073	-0.0462	0.0165	0.9585
3.8905	-10.8974	354.7302	-1.684	-140.4348	-3.1303	424.0406	43.3414	604.2302	-60.8721	216.3092	36.5527	530.2331	-0.0592	0.0182	-0.0073	-0.0462	0.0165	0.9585
3.902	-27.54	422.5585	6.2552	-166.6625	-19.1228	504.879	45.9064	562.9032	-56.0507	201.6996	31.5458	491.3795	-0.0592	0.0182	-0.0073	-0.0462	0.0165	0.9585
3.9135	-43.3033	481.9445	15.9909	-189.3975	-36.697	574.841	47.0809	512.4711	-50.1703	183.8861	26.1889	445.1506	-0.0592	0.0182	-0.0073	-0.0462	0.0165	0.9585
3.925	-56.9897	532.9039	26.0168	-208.717	-53.564	633.7586	46.4129	453.9086	-43.5356	163.1595	20.8892	392.4896	-0.0592	0.0182	-0.0073	-0.0462	0.0165	0.9585
3.9365	-67.9377	577.3593	34.9269	-225.4551	-67.8481	683.8509	43.6638	389.2582	-36.5625	140.1962	16.0686	335.2078	-0.0592	0.0182	-0.0073	-0.0462	0.0165	0.9585
3.948	-75.7281	617.037	41.8959	-240.3412	-78.4547	727.1595	38.8686	321.4339	-29.6561	116.0058	12.0294	275.8017	-0.0592	0.0182	-0.0073	-0.0462	0.0165	0.9585
3.9595	-80.2041	652.6018	46.7261	-253.6473	-85.1312	764.5518	32.4234	253.9862	-23.2108	91.8452	8.9391	217.2713	-0.0592	0.0182	-0.0073	-0.0462	0.0165	0.9585
3.971	-81.415	683.8481	49.7723	-265.2599	-88.3684	795.8709	25.0968	190.6156	-17.496	69.0526	6.7268	162.6788	-0.0592	0.0182	-0.0073	-0.0462	0.0165	0.9585
3.9825	-79.7482	710.2205	51.7596	-274.902	-89.1816	820.6958	17.8717	134.5285	-12.6582	48.805	5.1565	114.6354	-0.0592	0.0182	-0.0073	-0.0462	0.0165	0.9585
3.994	-75.7508	731.1405	53.1635	-282.3108	-88.4017	838.5725	11.5775	87.8405	-8.6836	31.9003	3.9396	74.7971	-0.0592	0.0182	-0.0073	-0.0462	0.0165	0.9585
4.0055	-70.1497	746.3411	54.5036	-287.3519	-86.9155	849.4872	6.566	51.431	-5.5091	18.6893	2.9192	43.8163	-0.0592	0.0182	-0.0073	-0.0462	0.0165	0.9585
4.017	-63.5649	755.8561	55.8859	-290.0563	-85.1285	853.6795	2.8904	25.0978	-3.0951	9.1204	2.0704	21.4718	-0.0592	0.0182	-0.0073	-0.0462	0.0165	0.9585
4.0285	-56.595	760.1544	57.4058	-290.636	-83.3728	851.8941	0.41197	7.7566	-1.3938	2.8096	1.4166	6.8147	-0.0592	0.0182	-0.0073	-0.0462	0.0165	0.9585
4.04	-49.6215	759.988	58.8181	-289.4483	-81.551	845.0905	-1.0589	-2.3263	-0.32672	-0.86508	0.97379	-1.6773	-0.0592	0.0182	-0.0073	-0.0462	0.0165	0.9585
4.0515	-42.9393	756.3315	59.8649	-286.9303	-79.5002	834.4804	-1.7893	-7.0908	0.23687	-2.6053	0.72512	-5.6618	-0.0592	0.0182	-0.0073	-0.0462	0.0165	0.9585
4.063	-36.6774	750.1785	60.282	-283.5309	-76.9881	821.2104	-1.996	-8.3549	0.46066	-3.0669	0.60661	-6.7129	-0.0592	0.0182	-0.0073	-0.0462	0.0165	0.9585
4.0745	-30.9152	742.5361	59.944	-279.6769	-73.9058	806.4482	-1.9038	-7.5487	0.45958	-2.7728	0.58679	-6.0321	-0.0592	0.0182	-0.0073	-0.0462	0.0165	0.9585
4.086	-25.6129	734.2045	59.0339	-275.6927	-70.4232	791.0697	-1.6454	-5.7674	0.34292	-2.1189	0.6079	-4.5603	-0.0592	0.0182	-0.0073	-0.0462	0.0165	0.9585
4.0975	-20.7572	725.8387	57.7805	-271.8245	-66.7707	775.7906	-1.357	-3.706	0.17801	-1.3626	0.6491	-2.8517	-0.0592	0.0182	-0.0073	-0.0462	0.0165	0.9585
